PathFileType	4	(X/Y/Z)	c:\Git\powerlifing_model_clean\simulations\HC835B\Session1\HC835B_CUT_0004\marker_experimental.trc
DataRate	CameraRate	NumFrames	NumMarkers	Units	OrigDataRate	OrigDataStartFrame	OrigNumFrames
240.000000	240.000000	4	38	mm	240.000000	57	77
Frame#	Time	RPSI			LPSI			RASI			LASI			RTH1			RTH2			RTH3			RTH4			RSK1			RSK2			RSK3			RSK4			RCAL1			RCAL2			RCAL3			RST			RPT			RTN			RFMB			RSMB			RVMB			RFMH			RSMH			RVMH			RPM			LTH1			LTH2			LTH3			LTH4			LSK1			LSK2			LSK3			LSK4			LCAL1			LCAL2			LCAL3			LFMH			LVMH			
		X1	Y1	Z1	X2	Y2	Z2	X3	Y3	Z3	X4	Y4	Z4	X5	Y5	Z5	X6	Y6	Z6	X7	Y7	Z7	X8	Y8	Z8	X9	Y9	Z9	X10	Y10	Z10	X11	Y11	Z11	X12	Y12	Z12	X13	Y13	Z13	X14	Y14	Z14	X15	Y15	Z15	X16	Y16	Z16	X17	Y17	Z17	X18	Y18	Z18	X19	Y19	Z19	X20	Y20	Z20	X21	Y21	Z21	X22	Y22	Z22	X23	Y23	Z23	X24	Y24	Z24	X25	Y25	Z25	X26	Y26	Z26	X27	Y27	Z27	X28	Y28	Z28	X29	Y29	Z29	X30	Y30	Z30	X31	Y31	Z31	X32	Y32	Z32	X33	Y33	Z33	X34	Y34	Z34	X35	Y35	Z35	X36	Y36	Z36	X37	Y37	Z37	X38	Y38	Z38	

58	0.2375	-14.29434394836426	1052.7802734375	-766.8198242187501	-97.03286743164065	1005.159423828125	-715.3032836914064	-24.69780540466309	990.439392089844	-974.562438964844	-227.7402496337891	913.2515258789065	-867.1951904296877	194.9721679687501	794.6777343750002	-890.1446533203127	173.3572540283203	759.0009765625001	-933.9816894531252	218.3514709472657	713.3475341796876	-888.9259033203127	189.3146667480469	675.7681274414064	-923.3332519531252	436.0812988281251	386.2318725585939	-650.6406860351564	440.0592651367189	347.6429443359376	-699.0599975585939	461.8042907714845	333.9681701660157	-643.7036743164064	455.8635253906251	292.3155517578126	-686.8698120117189	501.3309326171876	235.5862121582032	-530.2587890625001	467.5498657226564	210.3716278076172	-503.6320800781251	532.1075439453126	202.6288299560547	-511.720428466797	443.422332763672	171.9468383789063	-560.9274902343751	546.6754150390626	165.2873077392578	-561.6678466796876	450.6025695800782	146.5339965820313	-613.6396484375001	447.4016723632814	112.2039413452149	-622.9197387695314	493.5287170410157	113.4746932983399	-652.6231079101564	548.4354248046876	112.0093536376953	-573.0165405273439	432.3119506835939	59.3385581970215	-630.6119995117189	481.5068359375001	52.07985687255861	-660.6571655273439	554.0802612304689	46.42723846435548	-615.7015991210939	454.2305297851564	35.65649795532227	-694.1472167968751	0	0	0	-285.4260559082032	740.6441650390626	-971.3752441406252	-271.8276367187501	672.0411987304689	-1014.43115234375	-294.1069641113282	713.7972412109376	-1052.918579101563	-79.85836029052736	370.3197021484376	-1048.022583007813	-85.97806549072267	333.9798278808594	-1087.635498046875	-50.49185180664064	321.7645263671876	-1054.968994140625	-47.36709594726563	293.5025329589844	-1103.895141601563	102.53125	245.6344757080079	-1005.142517089844	94.48424530029298	200.6763458251954	-988.8695068359377	141.2465362548828	221.4811248779297	-1017.660705566406	62.173885345459	165.336669921875	-1217.783569335938	6.777556896209719	113.2141494750977	-1138.813842773438	
59	0.2416666666666667	-23.33834266662598	1054.636108398438	-786.8046875000002	-105.7648315429688	1007.150085449219	-734.6494750976564	-36.74966430664063	990.5395507812502	-993.530700683594	-237.4253845214844	915.647644042969	-886.0071411132815	186.7678833007813	798.0219726562502	-906.8135375976565	165.5412750244141	760.8983764648439	-949.7398071289065	210.6731567382813	716.8440551757814	-903.2634277343752	182.2704772949219	678.1219482421876	-936.842468261719	433.994110107422	392.8262023925782	-664.5493774414064	436.0091857910157	353.3892211914063	-712.2474365234376	459.3238830566407	340.5141296386719	-657.3429565429689	451.470428466797	297.9844970703126	-699.5038452148439	499.314422607422	246.7174987792969	-544.5869140625001	466.1541137695314	222.4621276855469	-516.1836547851564	530.7468872070314	215.2832031250001	-524.7283935546876	440.9955139160157	181.3626251220703	-572.3128662109376	545.0004272460939	175.4745788574219	-572.9707641601564	448.420135498047	152.6638336181641	-622.1773071289064	445.5415649414064	117.8932495117188	-629.9960937500001	491.0519409179689	118.1772232055664	-659.8173217773439	547.2752075195314	121.7878570556641	-581.7403564453126	431.9772338867189	63.71401596069337	-634.2419433593751	480.158172607422	55.15723419189455	-664.9265136718751	552.0105590820314	53.48473358154298	-621.1644897460939	453.552459716797	34.87799835205079	-695.7540893554689	0	0	0	-293.2141113281251	739.4100952148439	-988.1477050781252	-281.1773681640626	672.7537841796876	-1031.062622070313	-303.9837036132813	713.2210693359376	-1069.200317382813	-89.93882751464845	363.2087097167969	-1077.404663085938	-98.55342102050784	329.6188964843751	-1115.248901367188	-61.32526779174806	314.0718078613282	-1086.932983398438	-60.96655654907228	287.8974609375001	-1136.900390625	91.32796478271486	233.7367858886719	-1045.239379882813	83.1897659301758	187.9677276611328	-1030.774780273438	129.1362609863282	209.5374755859376	-1060.191162109375	42.50800323486329	163.1733551025391	-1259.727905273438	-10.8080997467041	108.2849884033203	-1181.087768554688	
60	0.2458333333333333	-32.47399520874024	1056.451171875	-806.5825805664065	-114.6333770751953	1009.127807617188	-753.8670043945314	-48.37967681884767	991.2132568359377	-1011.602111816406	-247.2667999267579	918.1450805664065	-904.934020996094	178.3166198730469	801.2463378906252	-923.482360839844	157.60546875	762.9658203125001	-965.5925292968752	202.8166046142579	720.4494018554689	-917.8050537109377	175.0565338134766	680.6663208007814	-950.7297363281252	431.1211853027345	399.6531982421876	-679.2197875976564	431.0044555664064	358.9089355468751	-725.8351440429689	456.009002685547	347.2892761230469	-671.3406982421876	446.3746643066407	303.7598571777344	-711.9880981445314	496.9698791503907	257.9798583984376	-558.1881103515626	464.8973693847657	234.4093170166016	-528.0668334960939	529.3510742187501	227.9419860839844	-537.6087036132814	440.0522460937501	189.627197265625	-579.8804931640626	543.0236206054689	186.2494049072266	-584.3252563476564	445.9794921875001	159.5938415527344	-630.6858520507814	443.7004699707032	124.2091217041016	-636.7793579101564	488.6355590820314	124.525260925293	-667.6706542968751	546.4006347656251	132.4014129638672	-591.1528320312501	431.4799194335939	68.99218750000001	-638.5149536132814	479.3236083984376	58.95331954956056	-669.6804199218751	550.5041503906251	62.00662231445314	-627.5324096679689	452.9376831054689	33.86039733886719	-698.3179931640626	0	0	0	-302.0961914062501	738.7131958007814	-1004.430480957031	-289.2362670898438	672.1864013671876	-1047.425903320313	-313.5602111816407	711.9462280273439	-1085.402954101563	-99.7846374511719	356.2415771484376	-1106.583984375	-110.4434585571289	323.8695068359376	-1145.532836914063	-72.30755615234376	306.7709350585938	-1118.890258789063	-74.25394439697267	282.4016418457032	-1169.4130859375	79.76924896240236	222.1056518554688	-1085.313842773438	71.33827972412111	175.6960754394532	-1072.66748046875	116.6181335449219	198.0189514160157	-1102.592163085938	22.74418640136719	161.5272216796875	-1301.135498046875	-28.72687149047852	104.1322555541992	-1223.089477539063	
61	0.25	-41.79967498779298	1058.277221679688	-826.2100219726565	-123.5975189208985	1011.027587890625	-772.9840087890627	-58.90137863159181	991.894226074219	-1030.623901367188	-257.0823059082032	920.4372558593752	-923.840515136719	169.6536560058594	804.4091796875002	-940.193054199219	149.5384216308594	765.1402587890626	-981.7125244140627	194.7185516357422	723.9511108398439	-932.7028808593752	167.7002410888672	683.3418579101564	-965.1997680664065	427.1788940429689	406.542694091797	-694.5534667968751	425.3788452148439	364.3640747070313	-739.6463012695314	451.6072387695314	354.0083923339844	-685.4877929687501	440.5609741210939	309.4472656250001	-724.4024658203126	493.9787597656251	269.5337219238282	-571.1510620117189	463.0884399414064	246.5033569335938	-539.4384155273439	527.5029907226564	241.0916900634766	-550.3309936523439	437.9976196289064	198.8336486816407	-588.8496093750001	540.6640014648439	197.7581787109376	-595.7126464843751	443.2891845703126	167.0031890869141	-638.5174560546876	441.7417297363282	131.2596282958985	-643.5427246093751	485.921356201172	131.7572784423828	-675.4855346679689	545.2324218750001	143.9518432617188	-600.6858520507814	431.3886108398439	75.08766174316408	-643.6217041015626	478.8706665039064	64.52336883544923	-674.7665405273439	549.4789428710939	71.78039550781251	-634.4279174804689	453.4397888183595	32.47387313842774	-701.4007568359376	0	0	0	-310.6106262207032	737.6065063476564	-1020.699584960938	-297.3171081542969	671.3955688476564	-1063.46533203125	-322.6206970214844	710.0864257812501	-1101.39111328125	-109.4971160888672	348.8245239257813	-1135.757934570313	-122.2423706054688	318.2232360839844	-1175.263793945313	-83.32893371582033	299.5079040527344	-1150.545043945313	-87.58036041259767	276.9373779296876	-1201.757202148438	67.7963333129883	210.7876281738282	-1125.2119140625	58.86960601806642	163.9384460449219	-1114.4375	103.5726013183594	186.7227630615235	-1144.7158203125	3.258658409118653	160.4515228271485	-1341.648681640625	-46.94376754760743	100.9013977050782	-1264.613159179688	
